<svg id="visual" viewBox="0 0 900 600" width="900" height="600" xmlns="http://www.w3.org/2000/svg" xmlns:xlink="http://www.w3.org/1999/xlink" version="1.1"><g><g transform="translate(619 164)"><path d="M101.2 -32.8C113.3 4.4 93 52.3 56.1 79.7C19.2 107.2 -34.4 114.2 -67.1 90.8C-99.8 67.4 -111.6 13.7 -96.9 -27.1C-82.2 -67.8 -41.1 -95.6 1.7 -96.1C44.5 -96.7 89 -70 101.2 -32.8Z" fill="#00dfff"></path></g><g transform="translate(267 287)"><path d="M95.4 -30C106.9 4.6 88.1 50 54.9 73.7C21.6 97.4 -26 99.4 -58.1 76.8C-90.1 54.3 -106.6 7.1 -94.3 -28.4C-82 -64 -41 -88 0.4 -88.2C41.9 -88.3 83.8 -64.6 95.4 -30Z" fill="#00dfff"></path></g></g></svg>