<svg id="visual" viewBox="0 0 900 600" width="900" height="600" xmlns="http://www.w3.org/2000/svg" xmlns:xlink="http://www.w3.org/1999/xlink" version="1.1"><path d="M0 295L13.7 281C27.3 267 54.7 239 82 233C109.3 227 136.7 243 163.8 227C191 211 218 163 245.2 164C272.3 165 299.7 215 327 220C354.3 225 381.7 185 409 172C436.3 159 463.7 173 491 177C518.3 181 545.7 175 573 159C600.3 143 627.7 117 654.8 111C682 105 709 119 736.2 119C763.3 119 790.7 105 818 107C845.3 109 872.7 127 886.3 136L900 145L900 0L886.3 0C872.7 0 845.3 0 818 0C790.7 0 763.3 0 736.2 0C709 0 682 0 654.8 0C627.7 0 600.3 0 573 0C545.7 0 518.3 0 491 0C463.7 0 436.3 0 409 0C381.7 0 354.3 0 327 0C299.7 0 272.3 0 245.2 0C218 0 191 0 163.8 0C136.7 0 109.3 0 82 0C54.7 0 27.3 0 13.7 0L0 0Z" fill="#8c00ea"></path><path d="M0 379L13.7 370C27.3 361 54.7 343 82 350C109.3 357 136.7 389 163.8 377C191 365 218 309 245.2 308C272.3 307 299.7 361 327 356C354.3 351 381.7 287 409 266C436.3 245 463.7 267 491 274C518.3 281 545.7 273 573 267C600.3 261 627.7 257 654.8 248C682 239 709 225 736.2 231C763.3 237 790.7 263 818 268C845.3 273 872.7 257 886.3 249L900 241L900 143L886.3 134C872.7 125 845.3 107 818 105C790.7 103 763.3 117 736.2 117C709 117 682 103 654.8 109C627.7 115 600.3 141 573 157C545.7 173 518.3 179 491 175C463.7 171 436.3 157 409 170C381.7 183 354.3 223 327 218C299.7 213 272.3 163 245.2 162C218 161 191 209 163.8 225C136.7 241 109.3 225 82 231C54.7 237 27.3 265 13.7 279L0 293Z" fill="#0083ff"></path><path d="M0 463L13.7 458C27.3 453 54.7 443 82 448C109.3 453 136.7 473 163.8 467C191 461 218 429 245.2 429C272.3 429 299.7 461 327 455C354.3 449 381.7 405 409 384C436.3 363 463.7 365 491 367C518.3 369 545.7 371 573 375C600.3 379 627.7 385 654.8 376C682 367 709 343 736.2 335C763.3 327 790.7 335 818 341C845.3 347 872.7 351 886.3 353L900 355L900 239L886.3 247C872.7 255 845.3 271 818 266C790.7 261 763.3 235 736.2 229C709 223 682 237 654.8 246C627.7 255 600.3 259 573 265C545.7 271 518.3 279 491 272C463.7 265 436.3 243 409 264C381.7 285 354.3 349 327 354C299.7 359 272.3 305 245.2 306C218 307 191 363 163.8 375C136.7 387 109.3 355 82 348C54.7 341 27.3 359 13.7 368L0 377Z" fill="#00b6ff"></path><path d="M0 601L13.7 601C27.3 601 54.7 601 82 601C109.3 601 136.7 601 163.8 601C191 601 218 601 245.2 601C272.3 601 299.7 601 327 601C354.3 601 381.7 601 409 601C436.3 601 463.7 601 491 601C518.3 601 545.7 601 573 601C600.3 601 627.7 601 654.8 601C682 601 709 601 736.2 601C763.3 601 790.7 601 818 601C845.3 601 872.7 601 886.3 601L900 601L900 353L886.3 351C872.7 349 845.3 345 818 339C790.7 333 763.3 325 736.2 333C709 341 682 365 654.8 374C627.7 383 600.3 377 573 373C545.7 369 518.3 367 491 365C463.7 363 436.3 361 409 382C381.7 403 354.3 447 327 453C299.7 459 272.3 427 245.2 427C218 427 191 459 163.8 465C136.7 471 109.3 451 82 446C54.7 441 27.3 451 13.7 456L0 461Z" fill="#00dfff"></path></svg>